<svg xmlns="http://www.w3.org/2000/svg" xmlns:xlink="http://www.w3.org/1999/xlink" width="500" zoomAndPan="magnify" viewBox="0 0 375 374.999991" height="500" preserveAspectRatio="xMidYMid meet" version="1.0"><rect x="-37.5" width="450" fill="#ffffff" y="-37.499999" height="449.999989" fill-opacity="1"/><rect x="-37.5" width="450" fill="#ffffff" y="-37.499999" height="449.999989" fill-opacity="1"/><path fill="#31c390" d="M 125.464844 186.5625 C 129.847656 186.5625 133.421875 190.140625 133.421875 194.523438 C 133.421875 198.902344 129.847656 202.480469 125.464844 202.480469 C 121.082031 202.480469 117.503906 198.902344 117.503906 194.523438 C 117.503906 190.140625 121.082031 186.5625 125.464844 186.5625 Z M 125.464844 186.5625 " fill-opacity="1" fill-rule="nonzero"/><path fill="#31c390" d="M 181.171875 244.632812 C 185.699219 244.632812 189.417969 248.355469 189.417969 252.882812 C 189.417969 257.4375 185.699219 261.128906 181.171875 261.128906 C 176.617188 261.128906 172.925781 257.4375 172.925781 252.882812 C 172.925781 248.355469 176.617188 244.632812 181.171875 244.632812 Z M 181.171875 244.632812 " fill-opacity="1" fill-rule="nonzero"/><path fill="#31c390" d="M 153.75 210.753906 C 159.429688 210.753906 164.074219 215.367188 164.074219 221.046875 C 164.074219 226.730469 159.429688 231.371094 153.75 231.371094 C 148.070312 231.371094 143.425781 226.730469 143.425781 221.046875 C 143.425781 215.367188 148.070312 210.753906 153.75 210.753906 Z M 153.75 210.753906 " fill-opacity="1" fill-rule="nonzero"/><path fill="#31c390" d="M 108.070312 166.144531 C 111.058594 162.394531 114.839844 159.304688 119.148438 157.125 C 123.929688 154.710938 129.359375 153.414062 135.09375 153.578125 C 136.582031 153.617188 138.046875 153.753906 139.476562 153.980469 C 145.738281 154.976562 151.398438 157.707031 155.96875 161.652344 C 163.285156 167.96875 167.808594 177.40625 167.53125 187.832031 C 167.53125 187.886719 166.703125 208.683594 184.40625 208.839844 C 185.078125 208.84375 185.777344 208.820312 186.507812 208.765625 C 204.902344 207.410156 220.960938 221.222656 222.316406 239.617188 C 223.554688 256.082031 212.65625 270.660156 197.171875 274.542969 C 195.332031 275.003906 193.421875 275.316406 191.464844 275.460938 C 96.945312 282.695312 100.839844 186.273438 100.839844 186.015625 C 101.039062 178.488281 103.714844 171.613281 108.070312 166.144531 Z M 189.417969 252.882812 C 189.417969 248.355469 185.699219 244.632812 181.171875 244.632812 C 176.617188 244.632812 172.925781 248.355469 172.925781 252.882812 C 172.925781 257.4375 176.617188 261.128906 181.171875 261.128906 C 185.699219 261.128906 189.417969 257.4375 189.417969 252.882812 Z M 164.074219 221.046875 C 164.074219 215.367188 159.429688 210.753906 153.75 210.753906 C 148.070312 210.753906 143.425781 215.367188 143.425781 221.046875 C 143.425781 226.730469 148.070312 231.371094 153.75 231.371094 C 159.429688 231.371094 164.074219 226.730469 164.074219 221.046875 Z M 133.421875 194.523438 C 133.421875 190.140625 129.847656 186.5625 125.464844 186.5625 C 121.082031 186.5625 117.503906 190.140625 117.503906 194.523438 C 117.503906 198.902344 121.082031 202.480469 125.464844 202.480469 C 129.847656 202.480469 133.421875 198.902344 133.421875 194.523438 Z M 133.421875 194.523438 " fill-opacity="1" fill-rule="nonzero"/><path fill="#31c390" d="M 245.558594 102.566406 C 258.707031 102.566406 269.375 113.238281 269.375 126.386719 C 269.375 139.535156 258.707031 150.171875 245.558594 150.171875 C 232.410156 150.171875 221.769531 139.535156 221.769531 126.386719 C 221.769531 113.238281 232.410156 102.566406 245.558594 102.566406 Z M 245.558594 102.566406 " fill-opacity="1" fill-rule="nonzero"/><path fill="#4babdd" d="M 187.515625 5.859375 C 287.539062 5.859375 369.140625 87.460938 369.140625 187.515625 C 369.140625 287.539062 287.539062 369.140625 187.515625 369.140625 C 87.460938 369.140625 5.859375 287.539062 5.859375 187.515625 C 5.859375 87.460938 87.460938 5.859375 187.515625 5.859375 Z M 339.644531 187.515625 C 339.644531 103.695312 271.304688 35.355469 187.515625 35.355469 C 103.695312 35.355469 35.355469 103.695312 35.355469 187.515625 C 35.355469 271.304688 103.695312 339.644531 187.515625 339.644531 C 271.304688 339.644531 339.644531 271.304688 339.644531 187.515625 Z M 339.644531 187.515625 " fill-opacity="1" fill-rule="nonzero"/><path fill="#91e3f3" d="M 119.148438 157.125 C 114.839844 159.304688 111.058594 162.394531 108.070312 166.144531 C 103.714844 171.613281 101.039062 178.488281 100.839844 186.015625 C 100.839844 186.273438 96.945312 282.695312 191.464844 275.460938 C 193.421875 275.316406 195.332031 275.003906 197.171875 274.542969 C 212.65625 270.660156 223.554688 256.085938 222.316406 239.617188 C 220.960938 221.222656 204.902344 207.410156 186.507812 208.765625 C 185.777344 208.820312 185.078125 208.84375 184.40625 208.839844 C 166.703125 208.683594 167.53125 187.886719 167.53125 187.832031 C 167.808594 177.40625 163.285156 167.96875 155.96875 161.652344 C 151.398438 157.707031 145.738281 154.976562 139.476562 153.980469 C 138.046875 153.753906 136.582031 153.617188 135.09375 153.578125 C 129.359375 153.414062 123.929688 154.710938 119.148438 157.125 Z M 187.515625 35.355469 C 271.304688 35.355469 339.644531 103.695312 339.644531 187.515625 C 339.644531 271.304688 271.304688 339.644531 187.515625 339.644531 C 103.695312 339.644531 35.355469 271.304688 35.355469 187.515625 C 35.355469 103.695312 103.695312 35.355469 187.515625 35.355469 Z M 300.429688 226.960938 C 300.429688 218.742188 293.765625 212.082031 285.550781 212.082031 C 277.359375 212.082031 270.699219 218.742188 270.699219 226.960938 C 270.699219 235.148438 277.359375 241.808594 285.550781 241.808594 C 293.765625 241.808594 300.429688 235.148438 300.429688 226.960938 Z M 269.375 126.386719 C 269.375 113.238281 258.707031 102.566406 245.558594 102.566406 C 232.410156 102.566406 221.769531 113.238281 221.769531 126.386719 C 221.769531 139.535156 232.410156 150.171875 245.558594 150.171875 C 258.707031 150.171875 269.375 139.535156 269.375 126.386719 Z M 177.480469 86.394531 C 177.480469 78.175781 170.820312 71.511719 162.601562 71.511719 C 154.386719 71.511719 147.722656 78.175781 147.722656 86.394531 C 147.722656 94.613281 154.386719 101.242188 162.601562 101.242188 C 170.820312 101.242188 177.480469 94.613281 177.480469 86.394531 Z M 177.480469 86.394531 " fill-opacity="1" fill-rule="nonzero"/><path fill="#fe9923" d="M 285.550781 212.082031 C 293.765625 212.082031 300.429688 218.742188 300.429688 226.960938 C 300.429688 235.148438 293.765625 241.808594 285.550781 241.808594 C 277.359375 241.808594 270.699219 235.148438 270.699219 226.960938 C 270.699219 218.742188 277.359375 212.082031 285.550781 212.082031 Z M 285.550781 212.082031 " fill-opacity="1" fill-rule="nonzero"/><path fill="#fe9923" d="M 162.601562 71.511719 C 170.820312 71.511719 177.480469 78.175781 177.480469 86.394531 C 177.480469 94.613281 170.820312 101.242188 162.601562 101.242188 C 154.386719 101.242188 147.722656 94.613281 147.722656 86.394531 C 147.722656 78.175781 154.386719 71.511719 162.601562 71.511719 Z M 162.601562 71.511719 " fill-opacity="1" fill-rule="nonzero"/><path fill="#202020" d="M 245.558594 156.03125 C 229.210938 156.03125 215.910156 142.734375 215.910156 126.386719 C 215.910156 110.023438 229.210938 96.707031 245.558594 96.707031 C 261.921875 96.707031 275.234375 110.023438 275.234375 126.386719 C 275.234375 142.734375 261.921875 156.03125 245.558594 156.03125 Z M 245.558594 108.429688 C 235.671875 108.429688 227.628906 116.484375 227.628906 126.386719 C 227.628906 136.273438 235.671875 144.3125 245.558594 144.3125 C 255.460938 144.3125 263.515625 136.273438 263.515625 126.386719 C 263.515625 116.484375 255.460938 108.429688 245.558594 108.429688 Z M 245.558594 108.429688 " fill-opacity="1" fill-rule="nonzero"/><path fill="#202020" d="M 245.558594 105.949219 C 242.320312 105.949219 239.699219 103.328125 239.699219 100.089844 L 239.699219 86.394531 C 239.699219 83.15625 242.320312 80.535156 245.558594 80.535156 C 248.792969 80.535156 251.417969 83.15625 251.417969 86.394531 L 251.417969 100.089844 C 251.417969 103.328125 248.792969 105.949219 245.558594 105.949219 Z M 245.558594 105.949219 " fill-opacity="1" fill-rule="nonzero"/><path fill="#202020" d="M 226.988281 113.648438 C 225.492188 113.648438 223.992188 113.078125 222.851562 111.9375 L 213.132812 102.25 C 210.84375 99.964844 210.835938 96.253906 213.121094 93.964844 C 215.40625 91.671875 219.117188 91.667969 221.40625 93.949219 L 231.125 103.636719 C 233.417969 105.921875 233.421875 109.632812 231.136719 111.925781 C 229.992188 113.074219 228.488281 113.648438 226.988281 113.648438 Z M 226.988281 113.648438 " fill-opacity="1" fill-rule="nonzero"/><path fill="#202020" d="M 219.289062 132.246094 L 205.5625 132.246094 C 202.328125 132.246094 199.703125 129.621094 199.703125 126.386719 C 199.703125 123.152344 202.328125 120.527344 205.5625 120.527344 L 219.289062 120.527344 C 222.527344 120.527344 225.148438 123.152344 225.148438 126.386719 C 225.148438 129.621094 222.527344 132.246094 219.289062 132.246094 Z M 219.289062 132.246094 " fill-opacity="1" fill-rule="nonzero"/><path fill="#202020" d="M 217.269531 160.53125 C 215.769531 160.53125 214.269531 159.960938 213.128906 158.816406 C 210.839844 156.527344 210.839844 152.816406 213.128906 150.53125 L 222.84375 140.8125 C 225.132812 138.523438 228.84375 138.523438 231.128906 140.8125 C 233.417969 143.101562 233.417969 146.8125 231.128906 149.097656 L 221.414062 158.816406 C 220.269531 159.960938 218.769531 160.53125 217.269531 160.53125 Z M 217.269531 160.53125 " fill-opacity="1" fill-rule="nonzero"/><path fill="#202020" d="M 245.558594 172.238281 C 242.320312 172.238281 239.699219 169.617188 239.699219 166.378906 L 239.699219 152.652344 C 239.699219 149.417969 242.320312 146.792969 245.558594 146.792969 C 248.792969 146.792969 251.417969 149.417969 251.417969 152.652344 L 251.417969 166.378906 C 251.417969 169.617188 248.792969 172.238281 245.558594 172.238281 Z M 245.558594 172.238281 " fill-opacity="1" fill-rule="nonzero"/><path fill="#202020" d="M 273.84375 160.53125 C 272.339844 160.53125 270.839844 159.957031 269.695312 158.808594 L 260.007812 149.09375 C 257.722656 146.800781 257.726562 143.089844 260.019531 140.808594 C 262.308594 138.523438 266.019531 138.527344 268.304688 140.820312 L 277.992188 150.535156 C 280.277344 152.828125 280.273438 156.539062 277.980469 158.824219 C 276.835938 159.960938 275.339844 160.53125 273.84375 160.53125 Z M 273.84375 160.53125 " fill-opacity="1" fill-rule="nonzero"/><path fill="#202020" d="M 285.550781 132.246094 L 271.851562 132.246094 C 268.617188 132.246094 265.992188 129.621094 265.992188 126.386719 C 265.992188 123.152344 268.617188 120.527344 271.851562 120.527344 L 285.550781 120.527344 C 288.785156 120.527344 291.410156 123.152344 291.410156 126.386719 C 291.410156 129.621094 288.785156 132.246094 285.550781 132.246094 Z M 285.550781 132.246094 " fill-opacity="1" fill-rule="nonzero"/><path fill="#202020" d="M 264.15625 113.648438 C 262.65625 113.648438 261.15625 113.074219 260.011719 111.929688 C 257.722656 109.644531 257.722656 105.933594 260.011719 103.644531 L 269.699219 93.957031 C 271.988281 91.667969 275.699219 91.667969 277.984375 93.957031 C 280.273438 96.246094 280.273438 99.957031 277.984375 102.242188 L 268.296875 111.929688 C 267.15625 113.074219 265.65625 113.648438 264.15625 113.648438 Z M 264.15625 113.648438 " fill-opacity="1" fill-rule="nonzero"/><path fill="#212121" d="M 187.515625 375 C 162.273438 375 137.75 370.027344 114.632812 360.222656 C 92.320312 350.757812 72.261719 337.21875 55.023438 319.980469 C 37.785156 302.742188 24.246094 282.691406 14.777344 260.378906 C 4.972656 237.265625 0 212.75 0 187.515625 C 0 162.273438 4.972656 137.75 14.777344 114.632812 C 24.246094 92.316406 37.785156 72.261719 55.023438 55.023438 C 72.261719 37.785156 92.316406 24.246094 114.632812 14.777344 C 137.75 4.972656 162.273438 0 187.515625 0 C 212.75 0 237.265625 4.972656 260.378906 14.777344 C 282.691406 24.246094 302.742188 37.785156 319.980469 55.023438 C 337.21875 72.261719 350.757812 92.316406 360.222656 114.632812 C 370.027344 137.75 375 162.273438 375 187.515625 C 375 212.75 370.027344 237.265625 360.222656 260.378906 C 350.757812 282.691406 337.21875 302.742188 319.980469 319.980469 C 302.742188 337.21875 282.691406 350.757812 260.378906 360.222656 C 237.265625 370.027344 212.75 375 187.515625 375 Z M 187.515625 11.71875 C 90.582031 11.71875 11.71875 90.582031 11.71875 187.515625 C 11.71875 284.433594 90.582031 363.28125 187.515625 363.28125 C 284.433594 363.28125 363.28125 284.433594 363.28125 187.515625 C 363.28125 90.582031 284.433594 11.71875 187.515625 11.71875 Z M 187.515625 11.71875 " fill-opacity="1" fill-rule="nonzero"/><path fill="#212121" d="M 187.515625 345.503906 C 166.238281 345.503906 145.574219 341.3125 126.089844 333.050781 C 107.285156 325.074219 90.386719 313.667969 75.859375 299.144531 C 61.335938 284.621094 49.925781 267.722656 41.949219 248.921875 C 33.6875 229.445312 29.496094 208.785156 29.496094 187.515625 C 29.496094 166.238281 33.6875 145.574219 41.949219 126.089844 C 49.925781 107.285156 61.335938 90.386719 75.859375 75.859375 C 90.386719 61.335938 107.285156 49.925781 126.089844 41.949219 C 145.574219 33.6875 166.238281 29.496094 187.515625 29.496094 C 208.785156 29.496094 229.445312 33.6875 248.921875 41.949219 C 267.722656 49.925781 284.621094 61.335938 299.144531 75.859375 C 313.667969 90.386719 325.074219 107.285156 333.050781 126.089844 C 341.3125 145.574219 345.503906 166.238281 345.503906 187.515625 C 345.503906 208.78125 341.3125 229.445312 333.050781 248.921875 C 325.074219 267.722656 313.667969 284.621094 299.144531 299.144531 C 284.621094 313.667969 267.722656 325.074219 248.921875 333.050781 C 229.445312 341.3125 208.78125 345.503906 187.515625 345.503906 Z M 187.515625 41.214844 C 106.84375 41.214844 41.214844 106.84375 41.214844 187.515625 C 41.214844 268.167969 106.84375 333.785156 187.515625 333.785156 C 268.167969 333.785156 333.785156 268.167969 333.785156 187.515625 C 333.785156 106.84375 268.167969 41.214844 187.515625 41.214844 Z M 187.515625 41.214844 " fill-opacity="1" fill-rule="nonzero"/><path fill="#212121" d="M 181.570312 281.707031 C 157.1875 281.707031 137.390625 274.585938 122.628906 260.472656 C 115.898438 254.042969 110.261719 246.148438 105.867188 237.019531 C 102.386719 229.78125 99.675781 221.742188 97.808594 213.125 C 94.75 199.015625 94.917969 187.949219 94.980469 185.867188 C 95.207031 177.277344 98.148438 169.199219 103.488281 162.496094 C 106.992188 158.097656 111.492188 154.433594 116.503906 151.894531 C 122.273438 148.980469 128.757812 147.539062 135.257812 147.71875 C 136.96875 147.765625 138.703125 147.925781 140.394531 148.191406 C 147.574219 149.335938 154.28125 152.453125 159.796875 157.214844 C 168.75 164.945312 173.703125 176.164062 173.390625 187.988281 C 173.386719 188 173.386719 188.011719 173.386719 188.023438 C 173.316406 190.234375 173.878906 196.746094 177.265625 200.273438 C 178.988281 202.066406 181.339844 202.953125 184.457031 202.980469 C 184.96875 202.988281 185.503906 202.964844 186.054688 202.921875 C 207.6875 201.328125 226.570312 217.597656 228.160156 239.1875 C 228.859375 248.46875 226.226562 257.726562 220.753906 265.25 C 215.339844 272.683594 207.472656 278.003906 198.597656 280.226562 C 196.414062 280.773438 194.160156 281.136719 191.894531 281.304688 C 188.367188 281.574219 184.925781 281.707031 181.570312 281.707031 Z M 106.695312 186.167969 C 106.695312 186.1875 106.695312 186.207031 106.695312 186.230469 C 106.640625 187.925781 105.683594 228.0625 130.726562 252 C 145.011719 265.660156 165.296875 271.585938 191.015625 269.617188 C 192.628906 269.5 194.214844 269.242188 195.75 268.859375 C 208.765625 265.597656 217.484375 253.480469 216.472656 240.054688 C 215.359375 224.902344 202.105469 213.488281 186.9375 214.609375 C 186.066406 214.675781 185.1875 214.707031 184.34375 214.695312 C 178.089844 214.640625 172.71875 212.457031 168.8125 208.390625 C 161.5 200.773438 161.632812 189.035156 161.675781 187.664062 C 161.894531 179.371094 158.417969 171.507812 152.140625 166.085938 C 148.277344 162.75 143.578125 160.566406 138.558594 159.765625 C 137.371094 159.578125 136.152344 159.464844 134.9375 159.433594 C 130.367188 159.304688 125.824219 160.316406 121.789062 162.355469 C 118.273438 164.132812 115.113281 166.707031 112.65625 169.796875 C 108.914062 174.492188 106.855469 180.152344 106.695312 186.167969 Z M 94.980469 185.867188 C 94.980469 185.945312 94.980469 185.996094 94.980469 186.015625 C 94.980469 185.964844 94.980469 185.917969 94.980469 185.867188 Z M 94.980469 185.867188 " fill-opacity="1" fill-rule="nonzero"/><path fill="#212121" d="M 125.464844 208.339844 C 117.84375 208.339844 111.644531 202.140625 111.644531 194.519531 C 111.644531 186.902344 117.84375 180.703125 125.464844 180.703125 C 133.082031 180.703125 139.28125 186.902344 139.28125 194.519531 C 139.28125 202.140625 133.082031 208.339844 125.464844 208.339844 Z M 125.464844 192.421875 C 124.324219 192.421875 123.363281 193.382812 123.363281 194.523438 C 123.363281 195.660156 124.324219 196.621094 125.464844 196.621094 C 126.601562 196.621094 127.5625 195.660156 127.5625 194.523438 C 127.5625 193.382812 126.601562 192.421875 125.464844 192.421875 Z M 125.464844 192.421875 " fill-opacity="1" fill-rule="nonzero"/><path fill="#212121" d="M 153.75 237.230469 C 144.828125 237.230469 137.566406 229.972656 137.566406 221.046875 C 137.566406 212.140625 144.828125 204.894531 153.75 204.894531 C 162.671875 204.894531 169.933594 212.140625 169.933594 221.046875 C 169.933594 229.972656 162.671875 237.230469 153.75 237.230469 Z M 153.75 216.613281 C 151.289062 216.613281 149.289062 218.601562 149.289062 221.046875 C 149.289062 223.507812 151.289062 225.511719 153.75 225.511719 C 156.210938 225.511719 158.214844 223.507812 158.214844 221.046875 C 158.214844 218.601562 156.210938 216.613281 153.75 216.613281 Z M 153.75 216.613281 " fill-opacity="1" fill-rule="nonzero"/><path fill="#212121" d="M 181.171875 266.988281 C 173.394531 266.988281 167.066406 260.660156 167.066406 252.878906 C 167.066406 245.101562 173.394531 238.773438 181.171875 238.773438 C 188.949219 238.773438 195.277344 245.101562 195.277344 252.878906 C 195.277344 260.660156 188.949219 266.988281 181.171875 266.988281 Z M 181.171875 250.492188 C 179.878906 250.492188 178.785156 251.585938 178.785156 252.882812 C 178.785156 254.199219 179.855469 255.269531 181.171875 255.269531 C 182.488281 255.269531 183.558594 254.199219 183.558594 252.882812 C 183.558594 251.585938 182.464844 250.492188 181.171875 250.492188 Z M 181.171875 250.492188 " fill-opacity="1" fill-rule="nonzero"/><path fill="#212121" d="M 155.976562 167.511719 C 154.046875 167.511719 152.15625 166.558594 151.035156 164.8125 C 149.289062 162.089844 150.082031 158.464844 152.804688 156.71875 L 166.789062 147.75 C 169.515625 146.003906 173.140625 146.796875 174.886719 149.519531 C 176.632812 152.246094 175.839844 155.867188 173.117188 157.617188 L 159.132812 166.582031 C 158.152344 167.210938 157.058594 167.511719 155.976562 167.511719 Z M 155.976562 167.511719 " fill-opacity="1" fill-rule="nonzero"/><path fill="#212121" d="M 167.179688 187.835938 C 164.195312 187.835938 161.644531 185.566406 161.355469 182.53125 C 161.046875 179.3125 163.410156 176.449219 166.632812 176.144531 L 183.269531 174.558594 C 186.488281 174.253906 189.347656 176.617188 189.65625 179.835938 C 189.964844 183.058594 187.601562 185.917969 184.378906 186.226562 L 167.742188 187.808594 C 167.554688 187.828125 167.367188 187.835938 167.179688 187.835938 Z M 167.179688 187.835938 " fill-opacity="1" fill-rule="nonzero"/><path fill="#212121" d="M 184.394531 214.703125 C 183.5 214.703125 182.597656 214.5 181.75 214.070312 C 178.863281 212.601562 177.710938 209.082031 179.175781 206.199219 L 179.183594 206.183594 C 179.234375 206.078125 179.292969 205.976562 179.351562 205.875 L 188.773438 189.796875 C 190.410156 187.007812 193.996094 186.070312 196.789062 187.707031 C 199.582031 189.339844 200.519531 192.929688 198.882812 195.722656 L 189.484375 211.765625 C 188.40625 213.632812 186.433594 214.703125 184.394531 214.703125 Z M 184.394531 214.703125 " fill-opacity="1" fill-rule="nonzero"/><path fill="#212121" d="M 210.816406 222.640625 C 209.210938 222.640625 207.609375 221.984375 206.453125 220.699219 C 204.292969 218.289062 204.492188 214.585938 206.898438 212.421875 L 218.199219 202.273438 C 220.605469 200.109375 224.3125 200.308594 226.472656 202.714844 C 228.636719 205.121094 228.4375 208.828125 226.03125 210.988281 L 214.730469 221.140625 C 213.609375 222.148438 212.210938 222.640625 210.816406 222.640625 Z M 210.816406 222.640625 " fill-opacity="1" fill-rule="nonzero"/><path fill="#212121" d="M 244.8125 246.949219 C 244.683594 246.949219 244.554688 246.945312 244.425781 246.9375 L 221.933594 245.464844 C 218.707031 245.253906 216.257812 242.464844 216.46875 239.234375 C 216.679688 236.003906 219.472656 233.558594 222.699219 233.769531 L 245.191406 235.242188 C 248.417969 235.453125 250.867188 238.242188 250.65625 241.472656 C 250.453125 244.570312 247.875 246.949219 244.8125 246.949219 Z M 244.8125 246.949219 " fill-opacity="1" fill-rule="nonzero"/><path fill="#212121" d="M 230.078125 283.507812 C 228.175781 283.507812 226.308594 282.582031 225.179688 280.871094 L 212.925781 262.277344 C 211.148438 259.574219 211.894531 255.941406 214.597656 254.160156 C 217.296875 252.378906 220.933594 253.125 222.714844 255.828125 L 234.964844 274.425781 C 236.746094 277.128906 236 280.761719 233.296875 282.542969 C 232.304688 283.195312 231.183594 283.507812 230.078125 283.507812 Z M 230.078125 283.507812 " fill-opacity="1" fill-rule="nonzero"/><path fill="#212121" d="M 195.308594 302.367188 C 195.140625 302.367188 194.972656 302.359375 194.804688 302.34375 C 191.578125 302.070312 189.1875 299.234375 189.460938 296.007812 L 191.328125 274.101562 C 191.554688 271.070312 194.085938 268.679688 197.171875 268.679688 C 200.410156 268.679688 203.03125 271.300781 203.03125 274.535156 C 203.03125 274.710938 203.023438 274.875 203.011719 275.039062 L 201.136719 297.003906 C 200.878906 300.058594 198.316406 302.367188 195.308594 302.367188 Z M 195.308594 302.367188 " fill-opacity="1" fill-rule="nonzero"/><path fill="#212121" d="M 165.828125 304.730469 C 162.695312 304.730469 160.097656 302.257812 159.976562 299.101562 L 159.027344 274.792969 C 158.898438 271.5625 161.417969 268.835938 164.652344 268.710938 C 167.878906 268.582031 170.609375 271.101562 170.734375 274.335938 L 171.683594 298.644531 C 171.8125 301.878906 169.292969 304.601562 166.058594 304.726562 C 165.980469 304.730469 165.902344 304.730469 165.828125 304.730469 Z M 165.828125 304.730469 " fill-opacity="1" fill-rule="nonzero"/><path fill="#212121" d="M 129.296875 294.121094 C 128.582031 294.121094 127.851562 293.992188 127.148438 293.710938 C 124.136719 292.523438 122.660156 289.117188 123.851562 286.109375 L 132.960938 263.039062 C 134.148438 260.03125 137.554688 258.554688 140.5625 259.742188 C 143.574219 260.933594 145.050781 264.335938 143.859375 267.34375 L 134.75 290.414062 C 133.839844 292.71875 131.632812 294.121094 129.296875 294.121094 Z M 129.296875 294.121094 " fill-opacity="1" fill-rule="nonzero"/><path fill="#212121" d="M 117.304688 251.042969 C 117.230469 251.042969 117.152344 251.042969 117.078125 251.039062 L 87.8125 249.914062 C 84.578125 249.789062 82.058594 247.066406 82.183594 243.832031 C 82.308594 240.597656 85.027344 238.082031 88.261719 238.203125 L 117.527344 239.328125 C 120.761719 239.453125 123.28125 242.175781 123.15625 245.40625 C 123.035156 248.566406 120.4375 251.042969 117.304688 251.042969 Z M 117.304688 251.042969 " fill-opacity="1" fill-rule="nonzero"/><path fill="#212121" d="M 86.28125 223.390625 C 84.332031 223.390625 82.425781 222.421875 81.316406 220.648438 C 79.59375 217.90625 80.421875 214.289062 83.160156 212.570312 L 99.511719 202.304688 C 102.25 200.582031 105.867188 201.410156 107.589844 204.148438 C 109.308594 206.890625 108.484375 210.507812 105.742188 212.226562 L 89.394531 222.492188 C 88.425781 223.101562 87.347656 223.390625 86.28125 223.390625 Z M 86.28125 223.390625 " fill-opacity="1" fill-rule="nonzero"/><path fill="#212121" d="M 100.84375 191.875 C 100.378906 191.875 99.910156 191.820312 99.4375 191.703125 L 78.964844 186.660156 C 75.820312 185.882812 73.902344 182.710938 74.675781 179.566406 C 75.453125 176.425781 78.625 174.503906 81.769531 175.28125 L 102.242188 180.328125 C 105.382812 181.101562 107.304688 184.277344 106.527344 187.417969 C 105.871094 190.089844 103.476562 191.875 100.84375 191.875 Z M 100.84375 191.875 " fill-opacity="1" fill-rule="nonzero"/><path fill="#212121" d="M 108.070312 172.007812 C 107.171875 172.007812 106.261719 171.800781 105.40625 171.363281 C 105.363281 171.339844 105.324219 171.320312 105.285156 171.300781 L 85.828125 160.78125 C 82.980469 159.238281 81.921875 155.683594 83.460938 152.839844 C 85 149.992188 88.554688 148.933594 91.398438 150.472656 L 110.84375 160.980469 C 113.648438 162.488281 114.746094 165.972656 113.289062 168.816406 C 112.25 170.84375 110.199219 172.007812 108.070312 172.007812 Z M 108.070312 172.007812 " fill-opacity="1" fill-rule="nonzero"/><path fill="#212121" d="M 119.152344 162.984375 C 118.632812 162.984375 118.109375 162.917969 117.585938 162.769531 C 114.46875 161.910156 112.636719 158.679688 113.5 155.5625 L 120.105469 131.6875 C 120.96875 128.566406 124.195312 126.738281 127.3125 127.601562 C 130.433594 128.464844 132.261719 131.691406 131.398438 134.8125 L 124.796875 158.6875 C 124.078125 161.28125 121.71875 162.984375 119.152344 162.984375 Z M 119.152344 162.984375 " fill-opacity="1" fill-rule="nonzero"/><path fill="#212121" d="M 139.472656 159.839844 C 138.289062 159.839844 137.089844 159.480469 136.054688 158.734375 C 133.429688 156.84375 132.832031 153.183594 134.722656 150.558594 L 147.523438 132.765625 C 149.414062 130.140625 153.078125 129.542969 155.703125 131.433594 C 158.328125 133.324219 158.925781 136.984375 157.035156 139.613281 L 144.234375 157.402344 C 143.089844 158.992188 141.292969 159.839844 139.472656 159.839844 Z M 139.472656 159.839844 " fill-opacity="1" fill-rule="nonzero"/><path fill="#202020" d="M 162.601562 107.101562 C 151.167969 107.101562 141.863281 97.8125 141.863281 86.394531 C 141.863281 74.957031 151.167969 65.652344 162.601562 65.652344 C 174.039062 65.652344 183.339844 74.957031 183.339844 86.394531 C 183.339844 97.8125 174.039062 107.101562 162.601562 107.101562 Z M 162.601562 77.371094 C 157.628906 77.371094 153.582031 81.417969 153.582031 86.394531 C 153.582031 91.351562 157.628906 95.382812 162.601562 95.382812 C 167.574219 95.382812 171.621094 91.351562 171.621094 86.394531 C 171.621094 81.417969 167.574219 77.371094 162.601562 77.371094 Z M 162.601562 77.371094 " fill-opacity="1" fill-rule="nonzero"/><path fill="#202020" d="M 285.550781 247.667969 C 274.128906 247.667969 264.839844 238.378906 264.839844 226.960938 C 264.839844 215.523438 274.132812 206.222656 285.550781 206.222656 C 296.984375 206.222656 306.289062 215.523438 306.289062 226.960938 C 306.289062 238.378906 296.984375 247.667969 285.550781 247.667969 Z M 285.550781 217.941406 C 280.59375 217.941406 276.558594 221.988281 276.558594 226.960938 C 276.558594 231.917969 280.59375 235.949219 285.550781 235.949219 C 290.523438 235.949219 294.570312 231.917969 294.570312 226.960938 C 294.570312 221.984375 290.523438 217.941406 285.550781 217.941406 Z M 285.550781 217.941406 " fill-opacity="1" fill-rule="nonzero"/></svg>