<svg xmlns="http://www.w3.org/2000/svg" xmlns:xlink="http://www.w3.org/1999/xlink" width="500" zoomAndPan="magnify" viewBox="0 0 375 374.999991" height="500" preserveAspectRatio="xMidYMid meet" version="1.0"><path fill="#ddedfc" d="M 309.863281 251.757812 C 301.515625 251.757812 294.707031 244.945312 294.707031 236.378906 L 294.707031 230.007812 C 286.578125 224.738281 281.523438 215.730469 281.523438 206.0625 L 281.523438 67.003906 C 281.523438 65.027344 283.28125 63.488281 285.257812 63.488281 L 334.6875 63.488281 C 336.664062 63.488281 338.421875 65.027344 338.421875 67.003906 L 338.421875 206.0625 C 338.421875 215.730469 333.371094 224.738281 325.242188 230.007812 L 325.242188 236.378906 C 325.242188 244.945312 318.429688 251.757812 309.863281 251.757812 Z M 309.863281 251.757812 " fill-opacity="1" fill-rule="evenodd"/><path fill="#4a5772" d="M 281.964844 70.738281 L 280.207031 70.738281 L 339.742188 70.738281 C 341.71875 70.078125 342.816406 68.101562 342.375 66.125 L 331.613281 22.847656 C 327.878906 8.128906 320.1875 0 309.863281 0 C 299.757812 0 292.070312 8.128906 288.335938 22.847656 L 277.570312 66.125 C 277.132812 68.101562 278.230469 70.078125 280.207031 70.738281 C 280.867188 70.738281 281.523438 70.738281 281.964844 70.738281 Z M 339.742188 70.738281 C 339.300781 70.738281 339.082031 70.738281 338.863281 70.738281 C 338.421875 70.738281 338.203125 70.738281 337.984375 70.738281 Z M 339.742188 70.738281 " fill-opacity="1" fill-rule="evenodd"/><path fill="#98db7c" d="M 309.863281 351.273438 C 299.539062 351.273438 289.871094 347.101562 282.621094 339.851562 C 275.375 332.601562 271.199219 322.933594 271.199219 312.390625 C 271.199219 302.066406 275.375 292.398438 282.621094 285.148438 L 307.445312 260.324219 C 308.765625 259.007812 311.183594 259.007812 312.5 260.324219 L 337.324219 285.148438 C 344.574219 292.398438 348.746094 302.066406 348.746094 312.390625 C 348.746094 322.933594 344.574219 332.601562 337.324219 339.851562 C 330.074219 347.101562 320.410156 351.273438 309.863281 351.273438 Z M 309.863281 351.273438 " fill-opacity="1" fill-rule="evenodd"/><path fill="#0068c0" d="M 259.777344 304.261719 C 259.554688 304.261719 259.117188 304.261719 258.675781 304.042969 L 121.59375 264.058594 C 111.269531 260.984375 109.730469 254.832031 109.730469 251.316406 L 109.730469 215.289062 C 109.730469 213.3125 111.269531 211.773438 113.464844 211.773438 C 115.445312 211.773438 116.980469 213.3125 116.980469 215.289062 L 116.980469 251.316406 C 116.980469 253.953125 119.179688 255.710938 123.792969 257.03125 L 260.875 297.011719 C 262.851562 297.671875 263.949219 299.648438 263.289062 301.625 C 262.851562 303.164062 261.3125 304.261719 259.777344 304.261719 Z M 259.777344 304.261719 " fill-opacity="1" fill-rule="evenodd"/><path fill="#ea7432" d="M 235.171875 375 L 207.273438 375 C 205.292969 375 203.535156 373.242188 203.535156 371.265625 C 203.535156 369.289062 205.292969 367.53125 207.273438 367.53125 L 235.171875 367.53125 C 237.148438 367.53125 238.90625 369.289062 238.90625 371.265625 C 238.90625 373.242188 237.148438 375 235.171875 375 Z M 163.554688 375 L 17.683594 375 C 15.707031 375 13.949219 373.242188 13.949219 371.265625 C 13.949219 369.289062 15.707031 367.53125 17.683594 367.53125 L 163.554688 367.53125 C 165.53125 367.53125 167.289062 369.289062 167.289062 371.265625 C 167.289062 373.242188 165.53125 375 163.554688 375 Z M 163.554688 375 " fill-opacity="1" fill-rule="evenodd"/><path fill="#ea7432" d="M 227.703125 335.015625 L 118.519531 335.015625 C 116.542969 335.015625 114.785156 333.261719 114.785156 331.28125 C 114.785156 329.304688 116.542969 327.546875 118.519531 327.546875 L 227.703125 327.546875 C 229.679688 327.546875 231.4375 329.304688 231.4375 331.28125 C 231.4375 333.261719 229.679688 335.015625 227.703125 335.015625 Z M 74.800781 335.015625 L 17.683594 335.015625 C 15.707031 335.015625 13.949219 333.261719 13.949219 331.28125 C 13.949219 329.304688 15.707031 327.546875 17.683594 327.546875 L 74.800781 327.546875 C 76.78125 327.546875 78.535156 329.304688 78.535156 331.28125 C 78.535156 333.261719 76.78125 335.015625 74.800781 335.015625 Z M 74.800781 335.015625 " fill-opacity="1" fill-rule="evenodd"/><path fill="#ea7432" d="M 165.53125 295.035156 L 155.644531 295.035156 C 153.667969 295.035156 151.910156 293.277344 151.910156 291.300781 C 151.910156 289.324219 153.667969 287.566406 155.644531 287.566406 L 165.53125 287.566406 C 167.507812 287.566406 169.046875 289.324219 169.046875 291.300781 C 169.046875 293.277344 167.507812 295.035156 165.53125 295.035156 Z M 111.929688 295.035156 L 17.683594 295.035156 C 15.707031 295.035156 13.949219 293.277344 13.949219 291.300781 C 13.949219 289.324219 15.707031 287.566406 17.683594 287.566406 L 111.929688 287.566406 C 113.90625 287.566406 115.664062 289.324219 115.664062 291.300781 C 115.664062 293.277344 113.90625 295.035156 111.929688 295.035156 Z M 111.929688 295.035156 " fill-opacity="1" fill-rule="evenodd"/><path fill="#ea7432" d="M 86.445312 255.050781 L 17.683594 255.050781 C 15.707031 255.050781 13.949219 253.296875 13.949219 251.316406 C 13.949219 249.339844 15.707031 247.582031 17.683594 247.582031 L 86.445312 247.582031 C 88.421875 247.582031 90.179688 249.339844 90.179688 251.316406 C 90.179688 253.296875 88.421875 255.050781 86.445312 255.050781 Z M 86.445312 255.050781 " fill-opacity="1" fill-rule="evenodd"/><path fill="#98db7c" d="M 281.523438 147.847656 L 281.523438 206.0625 C 281.523438 215.730469 286.578125 224.738281 294.707031 230.007812 L 294.707031 236.378906 C 294.707031 244.945312 301.515625 251.757812 309.863281 251.757812 C 318.429688 251.757812 325.242188 244.945312 325.242188 236.378906 L 325.242188 230.007812 C 333.371094 224.738281 338.421875 215.730469 338.421875 206.0625 L 338.421875 147.628906 C 325.679688 149.164062 316.453125 147.847656 310.082031 143.894531 C 304.589844 140.378906 294.707031 141.695312 281.523438 147.847656 Z M 281.523438 147.847656 " fill-opacity="1" fill-rule="evenodd"/><path fill="#202f51" d="M 357.972656 70.738281 L 261.972656 70.738281 C 259.996094 70.738281 258.238281 69.199219 258.238281 67.003906 C 258.238281 65.027344 259.996094 63.488281 261.972656 63.488281 L 357.972656 63.488281 C 359.953125 63.488281 361.710938 65.027344 361.710938 67.003906 C 361.710938 69.199219 359.953125 70.738281 357.972656 70.738281 Z M 357.972656 70.738281 " fill-opacity="1" fill-rule="evenodd"/><path fill="#b2ebf2" d="M 113.464844 217.488281 C 58.105469 217.488281 13.289062 172.671875 13.289062 117.53125 C 13.289062 62.171875 58.105469 17.355469 113.464844 17.355469 C 168.605469 17.355469 213.421875 62.171875 213.421875 117.53125 C 213.421875 172.671875 168.605469 217.488281 113.464844 217.488281 Z M 113.464844 217.488281 " fill-opacity="1" fill-rule="evenodd"/><path fill="#71ad3d" d="M 133.019531 63.050781 L 115.445312 73.15625 L 115.445312 93.367188 L 133.019531 103.691406 L 150.59375 93.367188 L 150.59375 73.15625 Z M 133.019531 63.050781 " fill-opacity="1" fill-rule="evenodd"/><path fill="#71ad3d" d="M 93.695312 63.050781 L 76.121094 73.15625 L 76.121094 93.367188 L 93.695312 103.691406 L 111.269531 93.367188 L 111.269531 73.15625 Z M 93.695312 63.050781 " fill-opacity="1" fill-rule="evenodd"/><path fill="#71ad3d" d="M 91.5 107.207031 L 73.921875 97.101562 L 56.347656 107.207031 L 56.347656 127.636719 L 73.921875 137.742188 L 91.5 127.636719 Z M 91.5 107.207031 " fill-opacity="1" fill-rule="evenodd"/><path fill="#71ad3d" d="M 113.464844 97.101562 L 95.890625 107.207031 L 95.890625 127.636719 L 113.464844 137.742188 L 130.820312 127.636719 L 130.820312 107.207031 Z M 113.464844 97.101562 " fill-opacity="1" fill-rule="evenodd"/><path fill="#71ad3d" d="M 152.789062 97.101562 L 135.214844 107.207031 L 135.214844 127.636719 L 152.789062 137.742188 L 170.363281 127.636719 L 170.363281 107.207031 Z M 152.789062 97.101562 " fill-opacity="1" fill-rule="evenodd"/><path fill="#71ad3d" d="M 150.59375 141.476562 L 133.019531 131.371094 L 115.445312 141.476562 L 115.445312 161.6875 L 133.019531 171.792969 L 150.59375 161.6875 Z M 150.59375 141.476562 " fill-opacity="1" fill-rule="evenodd"/><path fill="#71ad3d" d="M 93.695312 131.371094 L 76.121094 141.476562 L 76.121094 161.6875 L 93.695312 171.792969 L 111.269531 161.6875 L 111.269531 141.476562 Z M 93.695312 131.371094 " fill-opacity="1" fill-rule="evenodd"/><path fill="#83bd46" d="M 73.921875 143.894531 C 73.265625 143.894531 72.605469 143.671875 72.167969 143.453125 L 52.394531 132.03125 C 51.296875 131.371094 50.636719 130.050781 50.636719 128.734375 L 50.636719 106.105469 C 50.636719 104.789062 51.296875 103.472656 52.394531 102.8125 L 72.167969 91.609375 C 73.265625 90.949219 74.582031 90.949219 75.902344 91.609375 L 95.453125 102.8125 C 97.210938 103.910156 97.867188 106.105469 96.769531 107.863281 C 95.890625 109.621094 93.695312 110.28125 91.9375 109.183594 L 73.921875 98.859375 L 57.886719 108.085938 L 57.886719 126.757812 L 73.921875 135.984375 L 91.9375 125.660156 C 93.695312 124.5625 95.890625 125.21875 96.769531 126.976562 C 97.867188 128.734375 97.210938 130.929688 95.453125 132.03125 L 75.902344 143.453125 C 75.242188 143.671875 74.582031 143.894531 73.921875 143.894531 Z M 73.921875 143.894531 " fill-opacity="1" fill-rule="evenodd"/><path fill="#83bd46" d="M 113.464844 143.894531 C 112.808594 143.894531 112.148438 143.671875 111.488281 143.453125 L 91.9375 132.03125 C 90.621094 131.371094 89.960938 130.050781 89.960938 128.734375 L 89.960938 106.105469 C 89.960938 104.789062 90.621094 103.472656 91.9375 102.8125 L 111.488281 91.609375 C 112.585938 90.949219 114.125 90.949219 115.222656 91.609375 L 134.996094 102.8125 C 136.753906 103.910156 137.191406 106.105469 136.3125 107.863281 C 135.214844 109.621094 133.019531 110.28125 131.261719 109.183594 L 113.464844 98.859375 L 97.429688 108.085938 L 97.429688 126.757812 L 113.464844 135.984375 L 131.261719 125.660156 C 133.019531 124.5625 135.214844 125.21875 136.3125 126.976562 C 137.191406 128.734375 136.753906 130.929688 134.996094 132.03125 L 115.222656 143.453125 C 114.566406 143.671875 113.90625 143.894531 113.464844 143.894531 Z M 113.464844 143.894531 " fill-opacity="1" fill-rule="evenodd"/><path fill="#83bd46" d="M 152.789062 143.894531 C 152.132812 143.894531 151.472656 143.671875 151.03125 143.453125 L 131.261719 132.03125 C 130.164062 131.371094 129.503906 130.050781 129.503906 128.734375 L 129.503906 106.105469 C 129.503906 104.789062 130.164062 103.472656 131.261719 102.8125 L 151.03125 91.609375 C 152.132812 90.949219 153.449219 90.949219 154.546875 91.609375 L 174.320312 102.8125 C 175.417969 103.472656 176.078125 104.789062 176.078125 106.105469 L 176.078125 128.734375 C 176.078125 130.050781 175.417969 131.371094 174.320312 132.03125 L 154.546875 143.453125 C 154.109375 143.671875 153.449219 143.894531 152.789062 143.894531 Z M 136.753906 126.757812 L 152.789062 135.984375 L 168.828125 126.757812 L 168.828125 108.085938 L 152.789062 98.859375 L 136.753906 108.085938 Z M 136.753906 126.757812 " fill-opacity="1" fill-rule="evenodd"/><path fill="#83bd46" d="M 73.921875 98.417969 C 71.945312 98.417969 70.410156 96.660156 70.410156 94.683594 L 70.410156 72.054688 C 70.410156 70.738281 71.066406 69.421875 72.167969 68.761719 L 91.9375 57.335938 C 93.035156 56.679688 94.355469 56.679688 95.453125 57.335938 L 115.222656 68.761719 C 116.980469 69.859375 117.640625 72.054688 116.542969 73.8125 C 115.445312 75.570312 113.246094 76.230469 111.488281 75.132812 L 93.695312 64.808594 L 77.65625 74.035156 L 77.65625 94.683594 C 77.65625 96.660156 75.902344 98.417969 73.921875 98.417969 Z M 73.921875 98.417969 " fill-opacity="1" fill-rule="evenodd"/><path fill="#83bd46" d="M 152.789062 98.417969 C 150.8125 98.417969 149.054688 96.660156 149.054688 94.683594 L 149.054688 74.035156 L 133.019531 64.808594 L 116.980469 74.035156 L 116.980469 94.683594 C 116.980469 96.660156 115.445312 98.417969 113.464844 98.417969 C 111.269531 98.417969 109.730469 96.660156 109.730469 94.683594 L 109.730469 72.054688 C 109.730469 70.738281 110.390625 69.421875 111.488281 68.761719 L 131.261719 57.335938 C 132.359375 56.679688 133.675781 56.679688 134.996094 57.335938 L 154.546875 68.761719 C 155.644531 69.421875 156.523438 70.738281 156.523438 72.054688 L 156.523438 94.683594 C 156.523438 96.660156 154.765625 98.417969 152.789062 98.417969 Z M 152.789062 98.417969 " fill-opacity="1" fill-rule="evenodd"/><path fill="#83bd46" d="M 133.019531 177.945312 C 132.359375 177.945312 131.699219 177.722656 131.261719 177.503906 L 111.488281 166.082031 C 109.730469 164.980469 109.074219 162.785156 110.171875 161.027344 C 111.269531 159.269531 113.464844 158.832031 115.222656 159.710938 L 133.019531 170.035156 L 149.054688 160.808594 L 149.054688 140.15625 C 149.054688 138.179688 150.8125 136.421875 152.789062 136.421875 C 154.765625 136.421875 156.523438 138.179688 156.523438 140.15625 L 156.523438 163.003906 C 156.523438 164.324219 155.644531 165.421875 154.546875 166.082031 L 134.996094 177.503906 C 134.335938 177.722656 133.675781 177.945312 133.019531 177.945312 Z M 133.019531 177.945312 " fill-opacity="1" fill-rule="evenodd"/><path fill="#83bd46" d="M 93.695312 177.945312 C 93.035156 177.945312 92.378906 177.722656 91.9375 177.503906 L 72.167969 166.082031 C 71.066406 165.421875 70.410156 164.324219 70.410156 163.003906 L 70.410156 140.15625 C 70.410156 138.179688 71.945312 136.421875 73.921875 136.421875 C 75.902344 136.421875 77.65625 138.179688 77.65625 140.15625 L 77.65625 160.808594 L 93.695312 170.035156 L 109.730469 160.808594 L 109.730469 140.15625 C 109.730469 138.179688 111.269531 136.421875 113.464844 136.421875 C 115.445312 136.421875 116.980469 138.179688 116.980469 140.15625 L 116.980469 163.003906 C 116.980469 164.324219 116.324219 165.421875 115.222656 166.082031 L 95.453125 177.503906 C 95.011719 177.722656 94.355469 177.945312 93.695312 177.945312 Z M 93.695312 177.945312 " fill-opacity="1" fill-rule="evenodd"/><path fill="#83bd46" d="M 133.019531 64.148438 C 131.042969 64.148438 129.503906 62.609375 129.503906 60.632812 L 129.503906 43.496094 C 129.503906 41.519531 131.042969 39.761719 133.019531 39.761719 C 134.996094 39.761719 136.753906 41.519531 136.753906 43.496094 L 136.753906 60.632812 C 136.753906 62.609375 134.996094 64.148438 133.019531 64.148438 Z M 133.019531 64.148438 " fill-opacity="1" fill-rule="evenodd"/><path fill="#83bd46" d="M 93.695312 64.148438 C 91.71875 64.148438 89.960938 62.609375 89.960938 60.632812 L 89.960938 43.496094 C 89.960938 41.519531 91.71875 39.761719 93.695312 39.761719 C 95.671875 39.761719 97.429688 41.519531 97.429688 43.496094 L 97.429688 60.632812 C 97.429688 62.609375 95.671875 64.148438 93.695312 64.148438 Z M 93.695312 64.148438 " fill-opacity="1" fill-rule="evenodd"/><path fill="#83bd46" d="M 133.019531 195.078125 C 131.042969 195.078125 129.503906 193.542969 129.503906 191.34375 L 129.503906 174.210938 C 129.503906 172.230469 131.042969 170.695312 133.019531 170.695312 C 134.996094 170.695312 136.753906 172.230469 136.753906 174.210938 L 136.753906 191.34375 C 136.753906 193.542969 134.996094 195.078125 133.019531 195.078125 Z M 133.019531 195.078125 " fill-opacity="1" fill-rule="evenodd"/><path fill="#83bd46" d="M 93.695312 195.078125 C 91.71875 195.078125 89.960938 193.542969 89.960938 191.34375 L 89.960938 174.210938 C 89.960938 172.230469 91.71875 170.695312 93.695312 170.695312 C 95.671875 170.695312 97.429688 172.230469 97.429688 174.210938 L 97.429688 191.34375 C 97.429688 193.542969 95.671875 195.078125 93.695312 195.078125 Z M 93.695312 195.078125 " fill-opacity="1" fill-rule="evenodd"/></svg>