<svg xmlns="http://www.w3.org/2000/svg" xmlns:xlink="http://www.w3.org/1999/xlink" width="1024" zoomAndPan="magnify" viewBox="0 0 768 767.999994" height="1024" preserveAspectRatio="xMidYMid meet" version="1.0"><defs><clipPath id="0df349e01c"><path d="M 424.140625 166.0625 L 607.421875 166.0625 L 607.421875 727.621094 L 424.140625 727.621094 Z M 424.140625 166.0625 " clip-rule="nonzero"/></clipPath><clipPath id="1b46156275"><path d="M 168.097656 34.574219 L 558 34.574219 L 558 727.621094 L 168.097656 727.621094 Z M 168.097656 34.574219 " clip-rule="nonzero"/></clipPath></defs><g clip-path="url(#0df349e01c)"><path fill="#96cf8f" d="M 579.105469 212.605469 C 580.066406 233.90625 578.851562 255.621094 578.839844 276.878906 C 578.828125 301.710938 578.820312 326.542969 578.808594 351.371094 C 578.792969 394.207031 578.882812 437.035156 578.925781 479.867188 C 578.964844 522.605469 580.53125 565.6875 577.863281 608.363281 C 576.589844 628.714844 573.976562 649 570.070312 669.011719 C 567.128906 684.121094 564.789062 701.847656 554.878906 714.277344 C 532.222656 742.71875 488.945312 720.820312 476.1875 694.015625 C 468.277344 677.386719 466.433594 658.546875 464.460938 640.457031 C 462.199219 619.777344 461.003906 598.984375 460.347656 578.191406 C 458.996094 535.207031 459.421875 492.144531 459.347656 449.140625 C 459.207031 371.785156 458.453125 294.335938 460.855469 217 C 455.0625 216.488281 449.402344 215.558594 444.109375 213.890625 C 434.265625 210.792969 424.890625 202.738281 424.335938 191.816406 C 423.957031 184.382812 427.347656 178.820312 432.449219 174.902344 C 435.546875 171.039062 440.148438 169.722656 445.371094 169.175781 C 455.511719 168.113281 465.855469 168.042969 476.046875 167.632812 C 495.71875 166.851562 515.410156 166.550781 535.105469 166.558594 C 552.101562 166.5625 569.929688 165.457031 586.804688 167.703125 C 596.988281 169.054688 606.738281 174.808594 607.378906 186.054688 C 608.359375 203.234375 594.765625 209.886719 579.105469 212.605469 " fill-opacity="1" fill-rule="nonzero"/></g><path fill="#f46a61" d="M 562.195312 353.355469 C 560.832031 327.082031 505.230469 328.839844 492.238281 338.257812 C 467.855469 355.9375 475.597656 389.574219 475.992188 421 C 476.65625 474.667969 462.207031 639.515625 500.953125 680.433594 C 562.644531 745.589844 562.328125 585.65625 563.304688 547.066406 C 564.917969 482.875 565.523438 417.488281 562.195312 353.355469 Z M 361.703125 283.730469 C 373.976562 300.457031 365.296875 331.359375 356.902344 361.242188 C 354.992188 368.039062 353.195312 374.460938 351.71875 380.480469 C 344.75 408.863281 338.652344 436.484375 332.757812 463.199219 C 318.84375 526.265625 305.699219 585.832031 282.703125 650.085938 C 272.949219 677.347656 251.480469 706.6875 227.410156 706.6875 C 227.40625 706.6875 227.40625 706.6875 227.40625 706.6875 C 216.871094 706.6875 207.171875 701.191406 198.574219 690.351562 C 176.15625 662.089844 186.144531 615.597656 193.445312 581.65625 C 193.957031 579.265625 194.453125 576.941406 194.929688 574.691406 C 214.707031 480.722656 226.027344 433.777344 254.089844 341.023438 C 268.746094 292.578125 291.832031 272.824219 333.761719 272.824219 C 335.160156 272.824219 336.582031 272.84375 338.019531 272.890625 C 348.707031 273.230469 356.675781 276.875 361.703125 283.730469 " fill-opacity="1" fill-rule="nonzero"/><g clip-path="url(#1b46156275)"><path fill="#f5abae" d="M 518.683594 483.058594 C 517.839844 483.121094 517.023438 483.355469 516.3125 483.808594 C 515.839844 484.113281 515.566406 484.5 515.289062 484.9375 C 515.121094 484.992188 514.953125 485.019531 514.785156 485.09375 C 511.933594 486.441406 511.453125 490.238281 513.058594 492.699219 C 515.046875 495.761719 519.296875 495.828125 521.933594 493.605469 C 524.492188 491.460938 524.992188 487.410156 522.816406 484.820312 C 521.800781 483.613281 520.273438 482.933594 518.683594 483.058594 Z M 546.347656 532.117188 C 544.222656 531.234375 541.265625 530.839844 539.09375 531.910156 C 538.984375 531.863281 538.886719 531.808594 538.773438 531.769531 C 536.191406 530.941406 533.390625 532.074219 531.875 534.289062 C 530.199219 536.746094 530.324219 540.101562 530.890625 542.917969 C 532.054688 548.757812 539.234375 551.4375 544.519531 549.972656 C 549.707031 548.542969 552.894531 543.128906 551.480469 537.890625 C 550.761719 535.234375 548.875 533.164062 546.347656 532.117188 Z M 555.03125 349.542969 C 550.328125 350.1875 547.074219 353.332031 542.855469 355.359375 C 536.550781 358.398438 529.714844 359.960938 522.746094 360.367188 C 509.765625 361.125 497.015625 358.101562 484.117188 357.515625 C 482.367188 357.4375 481.992188 359.75 483.273438 360.617188 C 494.496094 368.152344 516.203125 368.136719 529.25 366.605469 C 538.332031 365.539062 554.804688 362.097656 557.003906 351.523438 C 557.273438 350.21875 556.257812 349.375 555.03125 349.542969 Z M 502.054688 565.324219 C 500.066406 565.941406 499.242188 568.507812 499.054688 570.328125 C 498.867188 572.109375 499.261719 573.996094 500.296875 575.472656 C 502.613281 578.785156 507.34375 579.386719 510.488281 576.886719 C 513.722656 574.320312 513.867188 569.292969 511.089844 566.3125 C 508.769531 563.832031 504.726562 563.449219 502.054688 565.324219 Z M 533.367188 456.488281 C 534.320312 460.582031 538.789062 463.257812 542.800781 461.929688 C 547.179688 460.46875 548.710938 455.683594 546.652344 451.710938 C 544.683594 447.914062 539.855469 445.3125 535.800781 447.296875 C 534.304688 448.035156 533.902344 449.542969 534.238281 450.921875 C 533.304688 452.585938 532.902344 454.515625 533.367188 456.488281 Z M 532.015625 585.640625 C 530.785156 586.015625 529.871094 587.21875 529.8125 588.480469 C 529.648438 588.59375 529.480469 588.691406 529.335938 588.851562 C 528.339844 589.949219 528.011719 591.367188 528.410156 592.800781 C 529.117188 595.355469 531.871094 597.023438 534.449219 596.214844 C 537.121094 595.378906 538.589844 592.574219 538.0625 589.890625 C 537.546875 587.3125 534.71875 584.832031 532.015625 585.640625 Z M 276.277344 441.367188 C 272.53125 439.808594 268.09375 441.546875 266.558594 445.703125 C 264.832031 450.378906 267.921875 456.035156 272.894531 456.882812 C 278.035156 457.761719 283.148438 453.644531 282.984375 448.34375 C 282.859375 444.492188 279.683594 441.460938 276.277344 441.367188 Z M 337.84375 278.488281 C 292.257812 277.058594 272.574219 299.273438 259.453125 342.644531 C 231.699219 434.394531 220.15625 482.019531 200.414062 575.84375 C 193.367188 609.304688 180.683594 658.78125 202.964844 686.867188 C 232.054688 723.546875 265.507812 681.492188 277.429688 648.195312 C 310.1875 556.667969 323.117188 473.449219 346.273438 379.136719 C 356.070312 339.25 380.539062 279.832031 337.84375 278.488281 Z M 464.542969 102.945312 C 463.355469 117.054688 452.242188 122.910156 437.253906 124.269531 C 437.0625 126.484375 436.703125 128.746094 436.121094 131.0625 C 405.421875 253.3125 366.113281 372.84375 338.117188 495.859375 C 325.5625 550.996094 301.84375 784.359375 200.320312 714.789062 C 124.054688 662.523438 204.660156 460.515625 223.25 392.867188 C 247.902344 303.121094 286.070312 149.683594 302.441406 90.953125 C 298.226562 87.824219 294.574219 84.09375 291.8125 79.5 C 283.085938 64.996094 288.863281 47.175781 302.195312 37.851562 C 313.832031 29.703125 335.078125 38.929688 346.636719 42.246094 C 366.589844 47.960938 386.421875 54.265625 406.527344 59.433594 C 428.378906 65.042969 467.054688 72.976562 464.542969 102.945312 Z M 303.441406 368.488281 C 303.449219 364.84375 299.859375 359.695312 295.707031 361.238281 C 294.796875 361.578125 294.082031 362.238281 293.675781 363.03125 C 292.957031 363.296875 292.285156 363.714844 291.769531 364.210938 C 290.53125 365.398438 289.773438 367.039062 289.664062 368.746094 C 289.433594 372.464844 292.425781 375.484375 296.140625 375.476562 C 299.953125 375.472656 303.429688 372.378906 303.441406 368.488281 Z M 353.898438 310.089844 C 342.105469 311.539062 332.183594 317.691406 319.875 318.253906 C 308.65625 318.761719 291.074219 319.039062 282.667969 310.398438 C 281.625 309.324219 279.609375 310.285156 279.734375 311.765625 C 280.949219 325.585938 302.570312 326.34375 312.835938 326.925781 C 326.265625 327.695312 348.707031 326.355469 355.328125 312.355469 C 355.792969 311.378906 355.125 309.941406 353.898438 310.089844 Z M 317.59375 425.011719 C 317.308594 431.839844 310.148438 436.78125 303.695312 436.351562 C 297.167969 435.914062 291.789062 430.0625 292.292969 423.449219 C 292.796875 416.882812 298.941406 412.449219 305.234375 414.535156 C 305.449219 414.609375 305.613281 414.722656 305.792969 414.832031 C 308.121094 414.914062 310.558594 415.730469 312.484375 416.6875 C 315.722656 418.285156 317.75 421.363281 317.59375 425.011719 " fill-opacity="1" fill-rule="nonzero"/></g><path fill="#2e2e30" d="M 407.660156 117.082031 C 396.859375 114.957031 386.074219 112.730469 375.316406 110.410156 C 365.15625 108.222656 355.011719 105.941406 344.890625 103.570312 C 340.125 102.457031 335.363281 101.324219 330.59375 100.21875 C 325.773438 99.105469 316.359375 98.441406 312.90625 94.359375 C 311.988281 93.277344 309.847656 94.167969 310.023438 95.609375 C 310.953125 103.007812 317.101562 103.890625 323.574219 105.578125 C 336 108.820312 348.507812 111.742188 361.03125 114.5625 C 372.964844 117.25 384.921875 119.820312 396.910156 122.261719 C 406.996094 124.320312 420.414062 129.59375 430.523438 126.144531 C 431.269531 125.890625 431.699219 124.8125 431.007812 124.234375 C 424.636719 118.941406 415.566406 118.632812 407.660156 117.082031 Z M 575.429688 215.988281 C 569.039062 220.6875 559.046875 219.484375 551.375 219.976562 C 541.808594 220.585938 532.234375 221.027344 522.652344 221.308594 C 504.765625 221.828125 483.890625 224.105469 466.460938 219.441406 C 464.785156 218.992188 464.632812 216.246094 466.460938 215.894531 C 484.382812 212.445312 504.402344 215 522.652344 214.445312 C 532.828125 214.128906 543.007812 213.628906 553.167969 212.941406 C 560.480469 212.445312 568.683594 210.074219 575.429688 213.367188 C 576.554688 213.914062 576.261719 215.375 575.429688 215.988281 " fill-opacity="1" fill-rule="nonzero"/><path fill="#ffffff" d="M 317.984375 127.703125 C 313.902344 136 312.242188 145.554688 309.925781 154.480469 C 307.191406 165.035156 304.492188 175.601562 301.703125 186.144531 C 299.070312 196.105469 296.378906 206.046875 293.65625 215.980469 C 291.070312 225.382812 287.089844 235.308594 288.003906 245.164062 C 288.167969 246.910156 290.632812 248.433594 291.957031 246.726562 C 297.519531 239.566406 299.527344 230.414062 301.929688 221.8125 C 304.867188 211.308594 307.671875 200.769531 310.328125 190.191406 C 312.835938 180.199219 315.289062 170.195312 317.484375 160.128906 C 319.695312 150.007812 322.941406 139.304688 322.730469 128.894531 C 322.679688 126.484375 319.113281 125.398438 317.984375 127.703125 Z M 252.226562 659.917969 C 246.867188 659.175781 241.628906 660.679688 236.304688 659.847656 C 228.71875 658.667969 224.347656 653.21875 222.328125 646.066406 C 219.171875 634.882812 221.898438 621.25 222.976562 609.925781 C 225.558594 582.933594 230 556.261719 233.429688 529.386719 C 233.871094 525.898438 229.179688 524.5625 228.050781 528.027344 C 217.308594 560.894531 211.980469 596.679688 210.121094 631.167969 C 209.457031 643.414062 211.128906 656.753906 221.097656 665.128906 C 230.105469 672.691406 244.804688 672.25 253.546875 664.597656 C 255.054688 663.273438 254.285156 660.203125 252.226562 659.917969 Z M 324.015625 47.960938 C 315.402344 46.066406 304.582031 53.957031 302.402344 62.207031 C 299.484375 73.257812 308.5 81.878906 317.597656 86.199219 C 319.414062 87.066406 321.425781 86.886719 322.898438 85.460938 C 323.957031 84.433594 324.046875 83.722656 324.15625 82.285156 C 324.265625 80.828125 323.167969 79.230469 321.929688 78.5625 C 315.640625 75.164062 306.132812 69.683594 310.761719 61.191406 C 313.894531 55.4375 320.765625 55.101562 324.730469 50.496094 C 325.449219 49.65625 325.207031 48.21875 324.015625 47.960938 Z M 485.074219 315.550781 C 489.730469 304.382812 487.195312 289.277344 486.738281 277.4375 C 486.210938 263.605469 485.238281 250.003906 483.429688 236.285156 C 482.988281 232.964844 478.117188 232.710938 478.058594 236.285156 C 477.820312 250.625 478.121094 264.886719 478.453125 279.226562 C 478.722656 291 476.824219 304.988281 481.554688 316.011719 C 482.296875 317.734375 484.527344 316.859375 485.074219 315.550781 Z M 491.054688 538.753906 C 494.160156 528.390625 491.832031 515.734375 491.675781 505.003906 C 491.503906 492.777344 491.480469 480.554688 491.535156 468.328125 C 491.636719 444.125 494.230469 419.128906 491.71875 395.039062 C 491.507812 393 488.410156 392.199219 487.878906 394.519531 C 482.578125 417.6875 483.21875 442.84375 482.863281 466.496094 C 482.683594 478.722656 482.738281 490.945312 482.964844 503.167969 C 483.175781 514.382812 481.453125 528.1875 485.539062 538.753906 C 486.523438 541.296875 490.195312 541.632812 491.054688 538.753906 Z M 524.617188 663.867188 C 520.421875 658.757812 514.121094 657.425781 510.316406 651.429688 C 506.675781 645.703125 505.054688 638.648438 503.320312 632.148438 C 499.523438 617.945312 496.730469 603.519531 492.890625 589.324219 C 492.140625 586.550781 487.933594 587.132812 487.902344 590 C 487.683594 608.664062 490.523438 628.730469 496.421875 646.496094 C 499.605469 656.078125 511.375 676.445312 524.039062 668.363281 C 525.703125 667.296875 525.804688 665.316406 524.617188 663.867188 Z M 465.59375 207.597656 C 465.929688 208.175781 465.894531 209.132812 465.335938 209.582031 C 461.117188 212.984375 454.667969 210.210938 450.359375 207.773438 C 445.722656 205.140625 442.050781 200.710938 441.542969 195.265625 C 440.765625 186.832031 449.695312 173.371094 459.347656 177.496094 C 459.804688 177.691406 459.988281 178.457031 459.703125 178.851562 C 455.621094 184.449219 446.878906 185.960938 448.269531 194.808594 C 449.105469 200.179688 453.960938 202.515625 458.671875 203.875 C 461.863281 204.792969 463.855469 204.640625 465.59375 207.597656 " fill-opacity="1" fill-rule="nonzero"/></svg>